<?xml version="1.0" standalone="no"?>
<!DOCTYPE svg PUBLIC "-//W3C//DTD SVG 1.1//EN" "http://www.w3.org/Graphics/SVG/1.1/DTD/svg11.dtd">
<svg xmlns="http://www.w3.org/2000/svg" id="Livello_1" data-name="Livello 1" viewBox="0 0 358.52 194.37" width="358.5199890136719" height="194.3699951171875">
  <defs>
    <style>
      .cls-1 {
        fill: #bbd6f1;
      }

      .cls-2 {
        fill: #fff;
      }
    </style>
  </defs>
  <path class="cls-1" d="M330.38,89.51c-.12,0-.23.03-.35.04,2.23-5.17,3.49-10.86,3.49-16.85,0-23.49-19.04-42.53-42.53-42.53-8.3,0-16.02,2.42-22.57,6.53C259.56,15.16,238.41,0,213.69,0c-32.68,0-59.17,26.49-59.17,59.17,0,2.47.2,4.89.49,7.28-.17,0-.33-.02-.49-.02-21.91,0-39.68,17.76-39.68,39.68s17.76,39.67,39.68,39.67h175.86c15.54,0,28.14-12.6,28.14-28.14s-12.6-28.14-28.14-28.14Z"/>
  <path class="cls-2" d="M259.87,126.52c-.15,0-.28.04-.43.04,2.69-6.23,4.2-13.1,4.2-20.32,0-28.32-22.96-51.28-51.28-51.28-10.01,0-19.32,2.91-27.21,7.87-10.68-25.95-36.18-44.23-65.98-44.23-39.4,0-71.35,31.94-71.35,71.35,0,2.98.24,5.9.59,8.78-.2,0-.39-.03-.59-.03C21.42,98.69,0,120.11,0,146.53s21.42,47.84,47.84,47.84h212.04c18.74,0,33.93-15.19,33.93-33.92s-15.19-33.93-33.93-33.93Z"/>
</svg>